<?xml version="1.0" encoding="UTF-8" standalone="no"?>
<!DOCTYPE svg PUBLIC "-//W3C//DTD SVG 1.1//EN" "http://www.w3.org/Graphics/SVG/1.1/DTD/svg11.dtd">
<svg width="100%" height="100%" viewBox="0 0 595 637" version="1.1" xmlns="http://www.w3.org/2000/svg" xmlns:xlink="http://www.w3.org/1999/xlink" xml:space="preserve" xmlns:serif="http://www.serif.com/" style="fill-rule:evenodd;clip-rule:evenodd;stroke-linejoin:round;stroke-miterlimit:2;">
    <g transform="matrix(2.99536,0,0,2.99536,-557.344,-866.504)">
        <path d="M363.784,498.492L339.929,474.672C339.334,474.07 338.811,473.432 338.388,472.752C323.06,482.418 304.902,488.022 285.439,488.022C230.577,488.022 186.048,443.5 186.069,388.666C186.055,333.797 230.584,289.282 285.425,289.282C340.28,289.275 384.809,333.797 384.802,388.666C384.809,415.84 373.881,440.476 356.174,458.434L380.037,482.254C384.487,486.754 384.508,494.02 380.022,498.492C375.544,502.992 368.263,502.992 363.784,498.492ZM364.035,388.652C364.035,345.764 329.244,310.995 286.385,310.995C243.511,310.995 208.713,345.771 208.713,388.666C208.713,431.526 243.504,466.317 286.363,466.317C329.244,466.317 364.042,431.526 364.035,388.652Z"/>
    </g>
    <g transform="matrix(2.99536,0,0,2.99536,-557.344,-756.296)">
        <path d="M236.797,369.497L236.797,385.977C236.797,394.665 241.988,401.719 248.381,401.719L248.384,401.719C254.777,401.719 259.968,394.665 259.968,385.977L259.968,369.497C259.968,360.809 254.777,353.755 248.384,353.755L248.381,353.755C241.988,353.755 236.797,360.809 236.797,369.497Z"/>
    </g>
    <g transform="matrix(2.99536,0,0,2.99536,-557.344,-823.35)">
        <path d="M273.827,369.502L273.827,408.358C273.827,417.046 279.018,424.1 285.414,424.1L285.418,424.1C291.814,424.1 297.005,417.046 297.005,408.358L297.005,369.502C297.005,360.814 291.814,353.76 285.418,353.76L285.414,353.76C279.018,353.76 273.827,360.814 273.827,369.502Z"/>
    </g>
    <g transform="matrix(2.99536,0,0,2.99536,-557.344,-899.938)">
        <path d="M310.885,369.501L310.885,433.928C310.885,442.616 316.077,449.67 322.469,449.67L322.473,449.67C328.865,449.67 334.057,442.616 334.057,433.928L334.057,369.501C334.057,360.813 328.865,353.759 322.473,353.759L322.469,353.759C316.077,353.759 310.885,360.813 310.885,369.501Z"/>
    </g>
</svg>
